<?xml version="1.0" encoding="utf-8"?>
<!-- Generator: Adobe Illustrator 24.0.1, SVG Export Plug-In . SVG Version: 6.00 Build 0)  -->
<svg version="1.1" id="Calque_1" xmlns="http://www.w3.org/2000/svg" xmlns:xlink="http://www.w3.org/1999/xlink" x="0px" y="0px"
	 viewBox="0 0 214.58 43.37" style="enable-background:new 0 0 214.58 43.37;" xml:space="preserve">
<style type="text/css">
	.st0{fill:#1A171B;}
	.st1{fill:#1E9BC4;}
	.st2{fill:#FFFFFF;}
</style>
<g>
	<g>
		<path class="st0" d="M53.66,8.36v15.49h11.85v2.02H53.66V37.2h-2.02V6.39h17.47v1.98H53.66z"/>
		<path class="st0" d="M74.82,6.34h2.02V37.2h-2.02V6.34z"/>
		<path class="st0" d="M97.03,35.14l-0.26,0.26c-1.58,1.36-3.64,2.15-5.88,2.2h-0.22c-2.28,0-4.39-0.75-6.06-2.11
			c-1.49-1.27-2.46-2.99-2.72-4.83l1.98-0.31c0.18,1.36,0.92,2.63,2.06,3.6c2.72,2.24,6.98,2.2,9.61-0.13
			c1.49-1.49,2.28-3.47,2.15-5.49c-0.09-1.97-1.01-3.69-2.59-4.83c-1.67-1.23-3.29-1.58-4.87-1.98c-1.89-0.44-3.86-0.88-5.62-2.68
			c-1.67-1.71-2.59-3.77-2.5-5.84c0.09-1.84,0.88-3.56,2.37-4.96c1.84-1.58,3.86-2.2,6.06-2.2c2.28,0,4.43,0.79,6.06,2.24
			c1.05,0.92,1.8,2.11,2.2,3.34l-2.02,0.31c-0.31-0.79-0.79-1.54-1.49-2.15c-2.59-2.28-6.76-2.33-9.35-0.13
			c-1.14,1.05-1.76,2.28-1.8,3.64c-0.09,1.49,0.62,2.99,1.93,4.35c1.32,1.36,2.85,1.71,4.61,2.15c1.71,0.39,3.64,0.83,5.62,2.33
			c2.02,1.45,3.25,3.77,3.42,6.28C99.84,30.79,98.87,33.29,97.03,35.14z"/>
		<path class="st0" d="M124.68,6.34h1.98V37.2h-1.98V22.19c-1.67,0.66-4.74,1.54-9.3,1.54s-7.59-0.88-9.26-1.54V37.2h-2.02V6.34
			h2.02v13.65c1.05,0.53,4.08,1.76,9.26,1.76c3.51,0,6.01-0.57,7.51-1.05c0.83-0.26,1.4-0.53,1.8-0.7V6.34z"/>
	</g>
	<g>
		<path class="st1" d="M147.52,4.97l-0.01,0l-0.61,0c-4.1,0.14-7.96,1.88-10.85,4.91c-3.05,3.14-4.72,7.32-4.72,11.78
			c0,4.49,1.68,8.69,4.72,11.82c2.9,3.04,6.75,4.78,10.88,4.92h0.26h0.33c4.06-0.14,7.91-1.88,10.85-4.92
			c3.01-3.15,4.67-7.35,4.67-11.82c0-4.44-1.66-8.62-4.68-11.78C155.43,6.85,151.58,5.11,147.52,4.97z M159.64,21.66
			c0,7.18-5.58,13.15-12.45,13.33c-6.84-0.17-12.41-6.15-12.41-13.33c0-7.16,5.57-13.12,12.39-13.29
			C154.05,8.54,159.64,14.5,159.64,21.66z"/>
		<polygon class="st1" points="170.33,5.58 166.88,5.58 166.88,37.87 184.73,37.87 184.73,34.47 170.33,34.47 		"/>
		<path class="st1" d="M201.75,5.63h-2.34l-12.49,32.29h3.69l2.25-5.86c1.67,0.58,4.24,1.16,7.84,1.16c3.58,0,6.14-0.56,7.8-1.12
			l2.29,5.82h3.69L201.75,5.63z M207.22,28.92c-1.25,0.41-3.39,0.89-6.53,0.89c-3.06,0-5.15-0.48-6.41-0.9
			c-0.05-0.01-0.11-0.03-0.16-0.04l6.49-16.78L207.22,28.92z"/>
	</g>
	<circle class="st1" cx="21.68" cy="21.68" r="21.68"/>
	<path class="st2" d="M39.78,18.35c-0.07-0.1-1.65-2.57-4.57-5.09c-1.46-1.26-3.22-2.37-5.18-3.18c-0.36-3.92-3.66-7-7.67-7
		c-4.25,0-7.71,3.46-7.71,7.71v0.37c-1.11,0.64-2.21,1.41-3.31,2.35c0,0,0,0-0.01,0.01c-1.7,1.47-2.82,2.96-3.45,3.91
		c-0.43-0.79-1-1.94-1.27-2.92c-0.02-0.07-0.04-0.13-0.05-0.19c-0.09-0.4-0.48-0.66-0.89-0.57c-0.4,0.09-0.66,0.49-0.57,0.89
		c0.02,0.09,0.04,0.18,0.07,0.27c0.4,1.45,1.33,3.13,1.77,3.89c-0.44,0.75-1.36,2.44-1.76,3.89c-0.02,0.09-0.05,0.18-0.07,0.27
		c-0.09,0.4,0.17,0.8,0.57,0.89c0.05,0.01,0.11,0.02,0.16,0.02c0.34,0,0.66-0.24,0.73-0.59c0.01-0.06,0.03-0.13,0.05-0.19
		c0.27-0.99,0.84-2.14,1.27-2.93c0.99,1.47,3.19,4.23,6.76,6.18v8.08c-1.28,0.27-2.24,1.41-2.24,2.77c0,1.56,1.27,2.84,2.84,2.84
		s2.84-1.27,2.84-2.84c0-1.25-0.81-2.3-1.93-2.68v-7.45c2.07,0.89,4.51,1.49,7.37,1.49c0.01,0,0.02,0,0.02,0
		c0.75,0,1.47-0.07,2.18-0.16c0.14,0.02,0.27,0,0.4-0.07c8.51-1.34,13.43-8.83,13.65-9.18C39.93,18.91,39.93,18.6,39.78,18.35z
		 M16.59,37.19c0,0.74-0.6,1.34-1.34,1.34s-1.34-0.6-1.34-1.34s0.6-1.34,1.34-1.34S16.59,36.45,16.59,37.19z M22.36,4.59
		c2.98,0,5.47,2.11,6.07,4.92c-3.67-1.13-7.92-1.15-12.25,0.86C16.4,7.14,19.08,4.59,22.36,4.59z M8.8,18.78
		c0.43-0.72,1.57-2.45,3.51-4.14c0.78-0.66,1.56-1.21,2.34-1.7v11.61C11.31,22.48,9.4,19.74,8.8,18.78z M26.13,26.82
		c-3.16-3.82-3.4-9.71-1.14-14.03c0.45-0.85-0.85-1.61-1.3-0.76c-2.42,4.63-2.28,10.68,0.71,14.99c-0.28,0.02-0.56,0.04-0.86,0.04
		c-0.01,0-0.01,0-0.02,0c-2.9,0-5.34-0.69-7.37-1.68v-13.3c4.4-2.26,8.75-2.2,12.41-0.94v3.73l-0.88-0.88
		c-0.29-0.29-0.77-0.29-1.06,0c-0.29,0.29-0.29,0.77,0,1.06l2.16,2.15c0.02,0.02,0.04,0.02,0.05,0.04c0.01,0.01,0.02,0.03,0.03,0.04
		c0.15,0.15,0.34,0.22,0.53,0.22c0.19,0,0.38-0.07,0.53-0.22l2.27-2.27c0.29-0.29,0.29-0.77,0-1.06c-0.29-0.29-0.77-0.29-1.06,0
		l-1.07,1.07v-3.28c1.57,0.71,2.98,1.63,4.16,2.65c2.07,1.78,3.45,3.57,4,4.35C37.12,20.27,32.79,25.64,26.13,26.82z"/>
</g>
</svg>
